<?xml version="1.0" encoding="utf-8"?>
<!-- Generator: Adobe Illustrator 25.3.1, SVG Export Plug-In . SVG Version: 6.00 Build 0)  -->
<svg version="1.1" id="图层_1" xmlns="http://www.w3.org/2000/svg" xmlns:xlink="http://www.w3.org/1999/xlink" x="0px" y="0px"
	 viewBox="0 0 222 222" style="enable-background:new 0 0 222 222;" xml:space="preserve">
<style type="text/css">
	.st0{fill:#079445;}
</style>
<path class="st0" d="M114.2,18c3,0.5,6.1,0.8,9.1,1.6c22.7,5.9,36.9,20.4,42.3,43.2c0.6,2.4,0.8,4.9,1,7.4c0.2,3.4,0.1,3.4,3.6,3.8
	c11.7,1.2,22.2,5.6,30.9,13.5c15.4,13.9,21.6,31.4,18,51.8c-3.6,20.4-15.6,34.4-34.7,42.2c-10.2,4.2-20.9,4.8-31.7,2.6
	c-1.5-0.3-2.2-0.9-2.2-2.6c-0.3-5.4-0.8-10.8-1.2-16.6c1,0.3,1.8,0.5,2.6,0.8c22.9,7.8,46.8-6.8,50.3-30.6
	c3.1-20.9-11.7-40.7-32.5-43.3c-7.5-0.9-14.9-0.2-22.3,1.5c-0.3,0.1-0.6,0.1-1.2,0.2c0.1-0.8,0.2-1.3,0.3-1.9
	c0.9-4.3,1.9-8.6,2.6-12.9c1-6.1-0.9-11.6-3.7-16.9c-4-7.5-9.3-14-16.1-19.2c-9.8-7.4-20.4-8.4-31.6-4.1c-7.9,3-14.2,8.4-18.5,15
	c-4.9,7.7-7,17.1-5.5,26.8c0.6,3.6,1.5,7.2,2.3,10.7c0.1,0.7,0.3,1.4,0.5,2.4c-2-0.4-3.7-0.8-5.4-1c-9.3-1.3-18.5-1.8-27.5,1.9
	c-13.7,5.6-23.2,19.4-23.7,34.2c-0.6,18.1,11.9,34.7,30.2,38.6c6.4,1.4,12.8,1.1,19.1-0.8c1.2-0.4,2.3-0.7,3.6-1.1
	c0,2.2,0.1,4.1,0,6.1c-0.2,3.7-0.5,7.5-1,11.2c-0.1,0.7-1.3,1.6-2.2,1.8c-8.7,2-17.4,1.9-25.9-0.6c-21-6.1-34.6-19.9-39.9-41.1
	c-7.7-30.6,13-62.2,44.1-67.6c1.9-0.3,3.8-0.6,5.7-0.7c1.5-0.1,2-0.7,2-2.1c0.5-10.4,3.5-20,9.4-28.7c9.8-14.3,23.4-22.5,40.6-24.5
	c0.9-0.1,1.7-0.3,2.6-0.5L114.2,18z"/>
<path class="st0" d="M144.1,204c-4.7-2.1-9-4-13.4-5.9c-1.9-0.9-3.8-1.9-5.8-2.5c-2-0.6-2.5-2-2.6-3.8c-0.5-9.2-0.9-18.5-1.4-27.7
	c-0.9-16.2-1.8-32.4-2.7-48.6c-0.6-10.3-1.2-20.5-1.7-30.8c-0.1-1.7-0.3-3.3-0.5-5.5c-1.1,0.8-2,1.4-2.7,2.1
	c-1.3,1.2-2.4,1.5-3.8,0.2c-0.8-0.8-1.9-1.4-3.3-2.4c-0.3,4.1-0.6,7.7-0.8,11.3c-0.9,15.7-1.8,31.3-2.6,47c-0.7,12-1.2,24-1.9,36
	c-0.4,6.4-0.8,12.9-1.2,19.3c-0.1,0.7-0.5,1.8-1.1,2.1c-6.6,3-13.4,6-20.2,9c0-2.4-0.2-4.7,0-7c0.6-8,1.3-15.9,2.1-23.9
	c0.9-9.2,1.7-18.4,2.8-27.6c1.1-9.7,2.4-19.5,3.9-29.2c1.9-12.4,3.9-24.9,8.6-36.7c0.8-1.9,1.8-3.7,2.9-5.4c1.4-2.3,3.6-3.2,6.3-3.2
	c2,0,3.1,1.1,4.2,2.4c1.3,1.5,2.3,1.7,3.8,0.2c3.9-4,8.3-3.7,10.9,1.3c2.6,4.8,4.6,9.9,6,15.2c4.1,15.2,6.3,30.8,8,46.5
	c1.5,13.4,3,26.8,4.3,40.2c0.8,8.2,1.3,16.5,1.9,24.8C144.1,202.3,144.1,203,144.1,204L144.1,204z"/>
</svg>
